<?xml version="1.0" standalone="no"?><svg xmlns="http://www.w3.org/2000/svg" viewBox="0 0 1440 320"><path fill="#a8d741" fill-opacity="1" d="M0,320L10.9,272C21.8,224,44,128,65,90.7C87.3,53,109,75,131,106.7C152.7,139,175,181,196,181.3C218.2,181,240,139,262,149.3C283.6,160,305,224,327,250.7C349.1,277,371,267,393,261.3C414.5,256,436,256,458,245.3C480,235,502,213,524,208C545.5,203,567,213,589,224C610.9,235,633,245,655,224C676.4,203,698,149,720,144C741.8,139,764,181,785,176C807.3,171,829,117,851,101.3C872.7,85,895,107,916,149.3C938.2,192,960,256,982,245.3C1003.6,235,1025,149,1047,117.3C1069.1,85,1091,107,1113,128C1134.5,149,1156,171,1178,192C1200,213,1222,235,1244,218.7C1265.5,203,1287,149,1309,112C1330.9,75,1353,53,1375,42.7C1396.4,32,1418,32,1429,32L1440,32L1440,320L1429.1,320C1418.2,320,1396,320,1375,320C1352.7,320,1331,320,1309,320C1287.3,320,1265,320,1244,320C1221.8,320,1200,320,1178,320C1156.4,320,1135,320,1113,320C1090.9,320,1069,320,1047,320C1025.5,320,1004,320,982,320C960,320,938,320,916,320C894.5,320,873,320,851,320C829.1,320,807,320,785,320C763.6,320,742,320,720,320C698.2,320,676,320,655,320C632.7,320,611,320,589,320C567.3,320,545,320,524,320C501.8,320,480,320,458,320C436.4,320,415,320,393,320C370.9,320,349,320,327,320C305.5,320,284,320,262,320C240,320,218,320,196,320C174.5,320,153,320,131,320C109.1,320,87,320,65,320C43.6,320,22,320,11,320L0,320Z"></path></svg>